<?xml version="1.0" standalone="no"?>
<!DOCTYPE svg PUBLIC "-//W3C//DTD SVG 20010904//EN"
 "http://www.w3.org/TR/2001/REC-SVG-20010904/DTD/svg10.dtd">
<svg version="1.0" xmlns="http://www.w3.org/2000/svg"
 width="204.000000pt" height="204.000000pt" viewBox="0 0 204.000000 204.000000"
 preserveAspectRatio="xMidYMid meet">
<metadata>
Created by potrace 1.14, written by Peter Selinger 2001-2017
</metadata>
<g transform="translate(0.000000,204.000000) scale(0.100000,-0.100000)"
fill="#000000" stroke="none">
<path d="M0 1020 l0 -1020 1020 0 1020 0 0 1020 0 1020 -1020 0 -1020 0 0
-1020z m600 -390 c0 -5 -5 -21 -12 -35 -10 -23 -17 -25 -72 -25 -54 0 -63 -3
-93 -32 -18 -18 -33 -36 -33 -40 0 -4 27 -8 60 -8 33 0 60 -2 60 -5 0 -4 -7
-19 -15 -35 -15 -29 -18 -30 -84 -30 -68 0 -69 0 -80 -31 -6 -18 -11 -41 -11
-52 0 -18 5 -19 46 -13 25 3 83 23 129 45 l83 39 16 55 c32 109 115 182 180
157 27 -10 28 -13 24 -60 -6 -62 -41 -109 -115 -157 -42 -27 -54 -39 -51 -56
2 -12 11 -23 21 -25 29 -6 103 36 159 91 48 46 51 51 31 55 -13 2 -23 6 -23
10 1 18 29 42 48 42 16 0 29 14 47 50 23 46 28 50 60 50 19 0 35 -2 35 -5 0
-3 -9 -23 -20 -45 -25 -48 -25 -50 0 -50 17 0 18 -3 8 -25 -7 -16 -19 -25 -34
-25 -18 0 -31 -13 -54 -52 -64 -112 -30 -116 83 -9 51 48 95 81 113 84 23 5
86 4 136 -2 4 -1 -6 -30 -24 -65 -29 -60 -32 -96 -8 -96 23 0 90 86 145 185
55 101 58 105 91 105 19 0 34 -2 34 -5 0 -3 -11 -28 -25 -55 l-25 -50 33 0
c101 0 89 -108 -16 -143 -49 -16 -57 -33 -23 -48 20 -10 34 -9 70 5 25 10 48
26 51 36 10 33 65 100 98 120 49 30 90 26 122 -12 31 -36 29 -59 -13 -127 -18
-30 -43 -53 -75 -69 -46 -24 -48 -24 -90 -9 -38 15 -47 15 -92 2 -63 -20 -97
-12 -132 29 l-28 32 -20 -35 c-16 -28 -28 -37 -53 -39 -24 -2 -32 1 -32 13 0
14 -3 14 -29 0 -35 -17 -57 -12 -64 17 l-6 20 -28 -21 c-15 -11 -40 -23 -55
-26 -21 -6 -30 -1 -49 24 l-23 31 -21 -20 c-36 -34 -81 -45 -109 -26 -14 8
-27 25 -31 36 -4 12 -10 20 -13 18 -4 -2 -29 -15 -57 -29 -96 -51 -160 -46
-171 11 -4 16 -8 30 -9 30 -1 0 -31 -13 -66 -29 -100 -45 -159 -55 -202 -37
-47 19 -55 51 -32 125 36 117 100 211 160 237 35 15 175 19 175 4z"/>
<path d="M687 538 c-31 -42 -50 -78 -44 -85 15 -14 107 73 107 102 0 27 -38
16 -63 -17z"/>
<path d="M1414 450 c-12 -4 -24 -16 -28 -25 -5 -15 -2 -16 21 -10 34 8 55 24
47 36 -6 11 -12 11 -40 -1z"/>
<path d="M1086 408 c-35 -35 -45 -61 -28 -72 25 -15 94 76 73 97 -7 7 -21 -1
-45 -25z"/>
<path d="M1651 395 c-32 -37 -40 -65 -18 -65 17 0 40 19 61 50 38 57 5 69 -43
15z"/>
</g>
</svg>
